<svg width="130" height="118" viewBox="0 0 130 118" fill="none" xmlns="http://www.w3.org/2000/svg">
<g id="Group 2">
<ellipse id="Ellipse 9" cx="63.5333" cy="57.6401" rx="30" ry="20" fill="#668284"/>
<path id="Ellipse 10" d="M52.6071 96.6202C44.823 105.587 29.8913 105.372 19.2564 96.1394C8.62137 86.9071 6.31027 72.1539 14.0944 63.1871C21.8785 54.2204 22.7157 70.6714 33.3507 79.9037C43.9857 89.136 60.3911 87.6535 52.6071 96.6202Z" fill="#668284"/>
<path id="Ellipse 13" d="M78.006 17.6888C86.2186 9.11277 101.122 10.0568 111.293 19.7973C121.465 29.5379 123.053 44.3864 114.84 52.9624C106.628 61.5384 106.595 45.0661 96.4232 35.3256C86.2517 25.585 69.7934 26.2648 78.006 17.6888Z" fill="#668284"/>
<path id="Ellipse 11" d="M109.224 72.0716C115.672 82.0423 111.313 96.325 99.4872 103.973C87.6614 111.621 72.8475 109.738 66.3992 99.7672C59.951 89.7965 75.9859 93.5674 87.8116 85.9194C99.6373 78.2715 102.776 62.1009 109.224 72.0716Z" fill="#668284"/>
<path id="Ellipse 12" d="M12.6708 47.1699C5.75864 37.5151 9.43815 23.0423 20.8893 14.8441C32.3404 6.64594 47.2268 7.82681 54.139 17.4817C61.0512 27.1365 44.856 24.1276 33.4049 32.3258C21.9538 40.524 19.583 56.8248 12.6708 47.1699Z" fill="#668284"/>
</g>
</svg>
